<svg xmlns="http://www.w3.org/2000/svg" viewBox="0 0 512 512">
  <defs>
    <linearGradient id="g" x1="90" y1="80" x2="430" y2="430" gradientUnits="userSpaceOnUse">
      <stop stop-color="#6C5CE7"/>
      <stop offset="1" stop-color="#D946EF"/>
    </linearGradient>
  </defs>
  <rect width="512" height="512" rx="128" fill="#080811"/>
  <path d="M365 151c-31-31-72-47-116-47-91 0-165 74-165 165s74 165 165 165c44 0 85-16 116-47l-51-51c-17 17-40 27-65 27-52 0-94-42-94-94s42-94 94-94c25 0 48 10 65 27l51-51Z" fill="url(#g)"/>
  <circle cx="379" cy="269" r="34" fill="url(#g)"/>
  <path d="M91 345 70 429l79-49-58-35Z" fill="#8B5CF6"/>
</svg>